<svg width="16" height="10" viewBox="0 0 16 10" fill="none" xmlns="http://www.w3.org/2000/svg">
<path d="M7.50826 0.975008C7.63901 0.974401 7.76856 0.999529 7.88932 1.04892C8.01007 1.09831 8.1196 1.17097 8.21148 1.26264L14.8456 7.79962C14.9779 7.99037 15.0376 8.22103 15.0142 8.45092C14.9908 8.68081 14.8857 8.89517 14.7175 9.05618C14.5494 9.21719 14.3289 9.31452 14.095 9.331C13.8611 9.34748 13.6289 9.28204 13.4392 9.14624L7.50826 3.3414L1.57737 9.14624C1.39035 9.26572 1.16802 9.31988 0.946041 9.30002C0.724059 9.28017 0.515271 9.18745 0.353139 9.03673C0.191007 8.88602 0.08492 8.68603 0.0518828 8.46882C0.0188466 8.25162 0.0607701 8.02977 0.170938 7.83884L6.80505 1.30186C6.8935 1.20307 7.0015 1.12312 7.12242 1.06692C7.24334 1.01072 7.37464 0.979441 7.50826 0.975008Z" fill="#B700DB"/>
</svg>
